<?xml version="1.0" encoding="iso-8859-1"?>
<!-- Generator: Adobe Illustrator 15.1.0, SVG Export Plug-In . SVG Version: 6.00 Build 0)  -->
<!DOCTYPE svg PUBLIC "-//W3C//DTD SVG 1.1//EN" "http://www.w3.org/Graphics/SVG/1.1/DTD/svg11.dtd">
<svg version="1.1" xmlns="http://www.w3.org/2000/svg" xmlns:xlink="http://www.w3.org/1999/xlink" x="0px" y="0px"
	 width="401.281px" height="283.471px" viewBox="0 0 401.281 283.471" style="enable-background:new 0 0 401.281 283.471;"
	 xml:space="preserve">
<g id="uranus">
	<g>
		<circle style="fill:#7AD7F4;" cx="200.64" cy="141.738" r="141.732"/>
		<g>
			<path style="fill:#AAE8F7;" d="M200.641,180.842C102.015,180.842,0,167.584,0,145.397s102.015-35.444,200.641-35.444
				s200.641,13.258,200.641,35.444S299.267,180.842,200.641,180.842z M200.641,112.953C82.417,112.953,3,129.729,3,145.397
				c0,15.668,79.417,32.444,197.641,32.444s197.641-16.776,197.641-32.444C398.281,129.729,318.864,112.953,200.641,112.953z"/>
		</g>
		<path style="fill:#7AD7F4;" d="M342.372,142.19c0,26-58.469,0-136.745,0c-78.277,0-146.719,28-146.719,0
			c0-4,0.198-8.93,0.586-13.204c1.023-11.272,3.367-22.276,6.874-32.63c18.954-55.96,71.909-96.293,134.272-96.293
			c66.873,0,122.929,46.286,137.842,108.588c1.704,7.121,2.871,14.662,3.456,22.155C342.226,134.492,342.372,138.19,342.372,142.19z
			"/>
	</g>
</g>
<g id="Layer_1">
</g>
</svg>
