<?xml version="1.0" encoding="iso-8859-1"?>
<!-- Generator: Adobe Illustrator 15.1.0, SVG Export Plug-In . SVG Version: 6.00 Build 0)  -->
<!DOCTYPE svg PUBLIC "-//W3C//DTD SVG 1.1//EN" "http://www.w3.org/Graphics/SVG/1.1/DTD/svg11.dtd">
<svg version="1.1" id="Layer_1" xmlns="http://www.w3.org/2000/svg" xmlns:xlink="http://www.w3.org/1999/xlink" x="0px" y="0px"
	 width="304.305px" height="304.306px" viewBox="9.578 9.074 304.305 304.306"
	 style="enable-background:new 9.578 9.074 304.305 304.306;" xml:space="preserve">
<g id="sun">
	<g>
		<circle style="fill:#FF9A22;" cx="161.732" cy="161.229" r="141.732"/>
	</g>
</g>
<g id="sun_1_">
	<g>
		<path style="fill:#FF9A22;" d="M161.732,308.213c-81.047,0-146.984-65.937-146.984-146.983
			c0-81.048,65.937-146.985,146.984-146.985c81.046,0,146.982,65.937,146.982,146.985
			C308.714,242.276,242.778,308.213,161.732,308.213z M161.732,16.244c-79.945,0-144.984,65.04-144.984,144.985
			c0,79.944,65.04,144.983,144.984,144.983c79.943,0,144.982-65.039,144.982-144.983C306.714,81.284,241.675,16.244,161.732,16.244z
			"/>
	</g>
</g>
<g id="sun_2_">
	<g>
		<path style="fill:#FF9A22;" d="M161.732,313.381c-83.898,0-152.154-68.255-152.154-152.151
			c0-83.898,68.256-152.155,152.154-152.155c83.896,0,152.15,68.256,152.15,152.155
			C313.882,245.126,245.628,313.381,161.732,313.381z M161.732,10.074c-83.347,0-151.154,67.808-151.154,151.155
			c0,83.345,67.808,151.151,151.154,151.151c83.345,0,151.15-67.807,151.15-151.151C312.882,77.882,245.077,10.074,161.732,10.074z"
			/>
	</g>
</g>
<g id="Layer_1_1_">
</g>
</svg>
