<?xml version="1.0" encoding="iso-8859-1"?>
<!-- Generator: Adobe Illustrator 15.1.0, SVG Export Plug-In . SVG Version: 6.00 Build 0)  -->
<!DOCTYPE svg PUBLIC "-//W3C//DTD SVG 1.1//EN" "http://www.w3.org/Graphics/SVG/1.1/DTD/svg11.dtd">
<svg version="1.1" id="Layer_1" xmlns="http://www.w3.org/2000/svg" xmlns:xlink="http://www.w3.org/1999/xlink" x="0px" y="0px"
	 width="283.464px" height="283.464px" viewBox="0 0 283.464 283.464" style="enable-background:new 0 0 283.464 283.464;"
	 xml:space="preserve">
<g id="earth">
	<g>
		<circle style="fill:#6FBFD8;" cx="141.731" cy="141.732" r="141.732"/>
		<g>
			<g>
				<g>
					<defs>
						<circle id="SVGID_1_" cx="141.731" cy="141.732" r="141.732"/>
					</defs>
					<clipPath id="SVGID_2_">
						<use xlink:href="#SVGID_1_"  style="overflow:visible;"/>
					</clipPath>
					<path style="clip-path:url(#SVGID_2_);fill:#45AF5B;" d="M241.677-11.743c-0.426,0.146-0.84,0.314-1.246,0.508
						c-0.293,0.524,6.525-1.262,2.375-3.739C242.693-13.802,242.318-12.725,241.677-11.743"/>
				</g>
			</g>
			<g>
				<g>
					<defs>
						<circle id="SVGID_3_" cx="141.731" cy="141.732" r="141.732"/>
					</defs>
					<clipPath id="SVGID_4_">
						<use xlink:href="#SVGID_3_"  style="overflow:visible;"/>
					</clipPath>
					<path style="clip-path:url(#SVGID_4_);fill:#45AF5B;" d="M121.161,70.63c2.883,4.61,11.276-1.377,13.131-3.647
						c1.449-1.775-2.242-6.471-4.125-5.429c-4.343,2.425-5.494,1.792-8.014-0.586c-0.148-0.142-7.107,4.982-0.854,5.229
						c-0.455,0.123-3.266,0.878-2.978,1.524c0.137,0.304,2.155,0.464,2.292,0.473C123.3,68.384,120.354,69.339,121.161,70.63"/>
				</g>
			</g>
			<g>
				<g>
					<defs>
						<circle id="SVGID_5_" cx="141.731" cy="141.732" r="141.732"/>
					</defs>
					<clipPath id="SVGID_6_">
						<use xlink:href="#SVGID_5_"  style="overflow:visible;"/>
					</clipPath>
					<path style="clip-path:url(#SVGID_6_);fill:#45AF5B;" d="M240.152,29.464c0.805-7.989,16.336-9.361,17.012-16.806
						c0.414-4.562-6.254,1.36-8.057,2.2c-3.609,1.685-6.607,3.736-9.953,6.009c-1.225,0.833-4.695,7.989-4.502,8.486
						c0.697,1.781-3.625,9.937-3.793,9.81c1.625,1.25,3.188,4.734,4.393,5.421c0.92,0.445,5.711,1.141,5.102-1.076
						c-0.57-2.072-4.084-2.366-4.084-4.89C236.267,34.809,239.826,32.762,240.152,29.464"/>
				</g>
			</g>
			<g>
				<g>
					<defs>
						<circle id="SVGID_7_" cx="141.731" cy="141.732" r="141.732"/>
					</defs>
					<clipPath id="SVGID_8_">
						<use xlink:href="#SVGID_7_"  style="overflow:visible;"/>
					</clipPath>
					<path style="clip-path:url(#SVGID_8_);fill:#45AF5B;" d="M146.169,98.059c0-2.58-3.066-0.483-3.954-0.068
						c-4.558,2.135,1.25,4.729-3.041,5.958c1.01-0.287,1.772,3.219,5.268,0.481C145.759,103.397,146.169,99.707,146.169,98.059"/>
				</g>
			</g>
			<g>
				<g>
					<defs>
						<circle id="SVGID_9_" cx="141.731" cy="141.732" r="141.732"/>
					</defs>
					<clipPath id="SVGID_10_">
						<use xlink:href="#SVGID_9_"  style="overflow:visible;"/>
					</clipPath>
					<path style="clip-path:url(#SVGID_10_);fill:#45AF5B;" d="M227.214,49.088c-1.406,0.934-2.189,3.236,0.348,3.602
						C231.07,53.184,228.789,48.042,227.214,49.088"/>
				</g>
			</g>
			<g>
				<g>
					<defs>
						<circle id="SVGID_11_" cx="141.731" cy="141.732" r="141.732"/>
					</defs>
					<clipPath id="SVGID_12_">
						<use xlink:href="#SVGID_11_"  style="overflow:visible;"/>
					</clipPath>
					<path style="clip-path:url(#SVGID_12_);fill:#45AF5B;" d="M187.593-6.674c5.293,0.662,6.096-3.292,9.354-6.062
						c0.514-0.437-4.992-1.461-5.805-1.992c-3.98-2.612-2.082-0.271-4.678,0.233c-1.518,0.295-0.809-3.026-2.268-2.296
						c-2.742,1.37-2.98-0.861-3.059,3.775c-0.031,1.915,2.43,1.752,3.561,2.449c0.516,0.315-1.217,4.005-1.475,4.649
						c-0.887-1.775-1.924-5.809-3.637-6.991c-0.576-0.397-2.855,3.425-2.664,3.736c-0.975-1.632-3.477-1.909-5.129-1.947
						c-4.656-0.111,0.08,5.628-0.279,7.768c-0.113,0.687-1.109-0.736-1.52-0.208c-0.332,0.423,2.252,4.725,2.215,4.917
						c-0.211-0.885-0.004-1.508,0.623-1.868c0.863,3.146,5.17,0.511,5.195,0c-0.104,1.92-6.07,3.84-1.354,4.987
						c-2.199-0.535-1.033,4.61-0.031,5.845c2.816,3.463,3.625,2.085,4.668-1.47c0.67-2.283,3.293-6.864,3.16-9.016
						c0.076,1.201,1.895,4.012,1.664,4.5c-2.523,5.255,2.998,2.661,3.047,2.428c-0.031,0.14-1.393,3.142-1.039,3.045
						c1.764-0.479,2.615-3.479,3.238-4.892c0.996-2.256-2.789-0.583-2.271-3.057C189.626-0.567,180.103-7.62,187.593-6.674"/>
				</g>
			</g>
			<g>
				<g>
					<defs>
						<circle id="SVGID_13_" cx="141.731" cy="141.732" r="141.732"/>
					</defs>
					<clipPath id="SVGID_14_">
						<use xlink:href="#SVGID_13_"  style="overflow:visible;"/>
					</clipPath>
					<path style="clip-path:url(#SVGID_14_);fill:#45AF5B;" d="M230.607-21.765c-0.463,0.159-3.352,3.806-3.816,3.32
						c-1.455-1.527-0.309-2.067-2.723-2.01c-1.006,0.024-4.602,1.205-3.699,2.941c0.527,1.12,2.826,0.751,3.756,0.889
						c1.27,0.189-0.615,1.949-0.025,2.808c1.654,2.394,4.076,3.368,6.148,0.794c-5.664-0.157-0.848-3.546,1.631-4.353
						C230.167-16.82,230.029-22.053,230.607-21.765"/>
				</g>
			</g>
			<g>
				<g>
					<defs>
						<circle id="SVGID_15_" cx="141.731" cy="141.732" r="141.732"/>
					</defs>
					<clipPath id="SVGID_16_">
						<use xlink:href="#SVGID_15_"  style="overflow:visible;"/>
					</clipPath>
					<path style="clip-path:url(#SVGID_16_);fill:#45AF5B;" d="M312.142,201.068c-0.586-1.85,3.043-0.191,3.469,0.045
						c1.469-3.723-2.564-1.336-3.746-2.748c-0.221-0.266-5.881-5.893-4.346-5.848c0.711,0.146,1.375,0.412,1.99,0.791
						c0.02-5.922-2.004-4.857-5.049-8.867c-1.645-2.162-1.189-2.098,0.129-4.016c0.559-0.812-1.359-1.221-1.73-1.805
						c-3.473-5.443,11.779,2.471,7.533,3.855c7.541-2.461,10.723-7.682,4.148-13.16c-3.227-2.689-2.395-2.549,0.334-5.58
						c1.273-1.418,1.422-1.162,3.07-1.162c1.945,0-1.479,3.871-1.494,4.121c-0.072,1.152,2.744,0.51,3.109,0.051
						c2.004-2.504-1.795-2.359,1.07-4.445c0.949-0.689,2.938-0.471,4.09-0.93c2.936-1.17,2.316-8.021,2.553-10.953
						c1.307-16.422,0.33-33.026-2.922-49.179c-5.879-29.232-19.289-56.759-38.59-79.48c-5.244,4.936,0.799,4.963-1.953,9.11
						c-0.146,0.222-9.002-1.487-9.492,1.011c-0.211,1.045,6.658,14.173,4.484,14.199c-2.543,0.031-1.051-3.751-1.033-4.766
						c0.031-2.146-3.625-2.739-4.973-4.08c-5.312-5.33-3.02,1.565-5.586,2.719c0.891-0.399-0.404-5.604-0.514-6.796
						c0.375,4.146-5.258,7.053-2.215,11.498c1.365,2.003-2.811,7.317,3.186,7.344c-0.684,0.07-2.607,0.492-2.979,1.106
						c-0.201,0.337,2.865,6.289-0.605,7.109c-0.854,0.201-6.469,4.293-6.875,0.649c0.016,0.128,6.312-0.963,6.146-4.702
						c-0.113-2.497-1.521-7.209-0.812-9.497c0.75-2.441-0.639-16.479-2.562-15.449c-2.502,1.341-3.037,4.235-3.523,6.729
						c-0.264,1.343-3.742,5.591-3.471,6.228c1.045,2.438,0.859,4.183,2.752,6.25c1.986,2.171,0.604,2.05,1.334,4.068
						c-1.754-4.81-12.367-5.394-14.617-9.489c-2.67,3.182,4.639,4.77,2.504,7.788c-0.973,1.372-2.143-2.002-2.229-2.313
						c-1.67,3.33-4.125,0.496-6.646,1.384c0.311,0.34,0.623,0.68,0.934,1.021c-0.057,0.062-3.59,3.521-3.59,1.969
						c0-0.437,3.939-4.139,0.105-3.368c-2.656,0.534-6.359,4.303-7.568,6.546c-1.021,1.886-5.176,1.469-2.049-1.581
						c2.734-2.669-4.646-3.388-4.65-3.395c1.055,1.269,1.311,9.942,0.861,10.018c-1.23,0.209-0.99-3.769-1.424-3.83
						c-3.246-0.457-4.551,8.836-5.174,9.495c-0.285,0.301-3.328-4.072-4.443-2.998c-1.668,1.602,3.695,5,1.164,5
						c-4.223,0-2.787-10.739-5.893-9.854c1.811-0.516,5.896,1.502,7.617,2.199c4.012,1.601,4.695-5.279,2.426-7.273
						c-3.66-3.211-6.373-7.253-11.75-8c-0.156-0.022-3.811,1.643-3.047-0.226c1.389-3.396,1.646-1.266-0.93-3.829
						c-1.328-1.324-6.182-0.775-7.768-0.396c-1.168,0.278-7.115,1.928-7.697,2.509c-1.312,1.312-12.029,12.107-8.918,11.803
						c-0.824,0.079,1.309-3.899,2.361-2.251c1.146,1.79-2.902,4.899-3.562,6.351c-1.248,2.742-0.906,5.128-3.127,7.357
						c-2.293,2.305-4.666,4.386-6.895,6.979c-1.893,2.216-2.225,12.619,2.193,12.902c1.855,0.132,5.104-3.712,5.938-3.025
						c0.555,0.458,1.836,6.28,1.146,6.8c-1.393,1.041-0.812-5.001-4.125-1.959c-2.695,2.472,0.043,7.935-3.67,9.583
						c-0.432,0.191,0.021-2.16-0.102-2.349c0.383,0.574-4.879,7.493-5.297,8.093c-1.541,2.215-8.006,4.749-6.725,6.346
						c-0.783-0.976-3.387-0.662-4.387-0.208c2.947,2.832,6.93,5.111,5.076,9.83c-0.916,2.334-9.098,0.161-11.579,1.43
						c-1.096,0.563-0.701,10.495,1.223,11.541c3.172,1.729,8.496,3.329,11.354-0.425c1.26-1.649,0.668-2.879,1.729-4.41
						c1.027-1.485,3.277-2.139,4.355-3.458c0.48-0.607-1.354-3.529,1.035-3.07c3.154,0.606,2.938,1.438,5.77-0.865
						c2.176-1.778,7.135,5.045,9.697,6.82c5.414,3.754-1.027,3.401-3.205,4.576c-0.043,0.022,5.066,3.688,4.318,0.654
						c-0.125-0.491,1.195-0.498,1.463-0.703c2.752-2.104,1.178-1.566,1.178-4.068c0-0.369,2.025,0.84,2.287,1.037
						c1.348-4.979-12.033-6.516-8.242-11.848c-1.002,1.398,8.068,6.618,8.799,7.344c2.543,2.549,1.639,6.725,5.057,8.729
						c1.797-1.928-0.031-3.104,0.967-5.126c0.291-0.58,2.426,1.522,2.846,1.522c-1.188,0,3.729-2.975,3.736-2.979
						c-2.162,1.08-1.49,5.703-1.801,7.552c-0.596,3.567,4.984,1.61,6.494,1.072c1.006-0.36,8.006-0.401,8.025-0.068
						c0.076,1.336-1.779,7.835-2.59,8.337c-1.975,1.227-4.99,0.422-6.666,0.219c-1.697-0.207-11.557-2.955-11.793-2.811
						c-3.799,2.312-2.682,5.213-8.256,2.141c-4.949-2.73-5.055-1.725-8.008-6.534c-0.854-1.397,1.295-2.289,0.105-2.961
						c-1.98-1.119-3.506-0.812-5.713-0.474c-4.441,0.687-7.508,1.386-11.568,2.947c-0.748,0.287-7.475-0.147-7.326-0.319
						c-2.533,2.958-4.922,6.155-6.738,9.602c-1.346,2.564-2.412,3.238-4.849,5.406c-2.084,1.85-2.536,5.461-4.641,7.133
						c-0.707,0.566,0.719,8.189-0.139,9.904c-2.691,5.383,0.1,4.977,2.209,8.791c2.947,5.332,7.98,11.221,14.573,9.441
						c3.906-1.055,7.021-1.293,10.891-2.604c3.857-1.309,5.068,3.248,8.625,2.654c4.088-0.68,2.334,4.48,1.861,6.279
						c-1.457,5.549,3.289,4.416,4.52,9.365c0.428,1.719,0.828,4.316,1.652,5.791c2.066,3.752-1.184,4.252-1.826,7.773
						c-0.883,4.834,0.574,4.381,1.979,8.557c1.08,3.219,0.932,5.838,1.809,9.119c0.949,3.551,4.883,7.361,4.785,11.113
						c-0.113,4.428,3.459,5.045,6.973,3.445c4.162-1.891,8.486-0.443,11.496-4.986c1.229-1.84,3.812-9.416,5.457-10.332
						c3.639-2.023,2.355-4.889,1.682-7.814c-0.635-2.754,6.895-4.955,7.605-7.129c2.871-8.777-3.674-15.281,3.477-22.84
						c3.23-3.414,7.129-6.258,10.254-9.729c1.734-1.93,6.133-9.961,1.434-9.643c-2.121,0.143-8.844,2.66-10.527,0.76
						c-0.871-0.986-3.301-4.928-3.332-6.234c-0.062-2.646-2.111-1.871-3.645-3.65c-1.908-2.221-8.186-15.762-8.186-18.715
						c0,2.662,4.326,1.635,3.064-0.473c2.066,3.459,2.252,8.064,5.551,10.963c1.969,1.729,0.391,4.688,2.273,6.834
						c0.961,1.094,2.611,2.051,3.232,3.375c2.035,4.355,2.637,7.141,8.027,4.799c4.938-2.146,10.762-4.781,14.986-8.172
						c1.535-1.225-2.008-2.076,1.387-2.076c0.752,0,1.867-3.646,1.711-4.268c-0.15-0.604-5.125-4.523-5.906-5.25
						c0.092,0.086-7.387,5.896-6.613,1.396c0.168-0.99-6.916-6.67-5.023-8.133c2.031-1.578,7.891,7.125,10.648,5.846
						c2.654-1.238,2.168,1.859,4.689,2.311c2.789,0.494,5.525,0.398,8.305,0.033c5.891-0.775,6.439,6.85,11.516,6.457
						c2.172-0.168,1.166,8.018,3.742,10.127c4.15,3.393,3.871,16.699,7.898,4.57c1.871-5.605,3.211-6.268,7.342-10.943
						c1.879-2.127,10.49-9.416,11.33-2.938c0.467,3.578,3.84,2.529,2.98,6.553c-1.174,5.506,4.719-0.998,4.938-0.686
						c0.494,0.705,0.68,8.619,0.594,9.479c-0.264,2.621,2.105,11.979,4.748,12.459c0.076,0.014-10.279-7.014-9.773-5.281
						c0.744,2.564,1.488,3.859,3.68,4.865c1.504,0.695-0.58,2.809,0.332,4.012c0.523,0.693,3.596,2.434,3.73,2.979
						c-0.068-0.281-2.23-4.143-1.943-4.012c4.771,2.188,6.693,9.322,12.012,11.639C315.292,202.029,313.138,204.236,312.142,201.068
						"/>
				</g>
			</g>
			<g>
				<g>
					<defs>
						<circle id="SVGID_17_" cx="141.731" cy="141.732" r="141.732"/>
					</defs>
					<clipPath id="SVGID_18_">
						<use xlink:href="#SVGID_17_"  style="overflow:visible;"/>
					</clipPath>
					<path style="clip-path:url(#SVGID_18_);fill:#45AF5B;" d="M276.976,185.578c0.365-1.725,0.023-3.885-1.998-4.855
						C271.585,179.087,276.011,190.816,276.976,185.578"/>
				</g>
			</g>
			<g>
				<g>
					<defs>
						<circle id="SVGID_19_" cx="141.731" cy="141.732" r="141.732"/>
					</defs>
					<clipPath id="SVGID_20_">
						<use xlink:href="#SVGID_19_"  style="overflow:visible;"/>
					</clipPath>
					<path style="clip-path:url(#SVGID_20_);fill:#45AF5B;" d="M219.664,230.089c0.314,0.549,0.922,5.799,0.586,5.6
						c2.049,1.225,4.299-0.992,5.15-2.682c2.117-4.195,6.332-15.926,4.102-20.373C229.896,213.427,216.548,224.642,219.664,230.089"
						/>
				</g>
			</g>
			<g>
				<g>
					<defs>
						<circle id="SVGID_21_" cx="141.731" cy="141.732" r="141.732"/>
					</defs>
					<clipPath id="SVGID_22_">
						<use xlink:href="#SVGID_21_"  style="overflow:visible;"/>
					</clipPath>
					<path style="clip-path:url(#SVGID_22_);fill:#45AF5B;" d="M237.306-17.574c-0.221,0.275-6.699,1.068-5.436,3.03
						c0.262,3.303,3.598-1.22,4.9,0.208c2.646,2.892,2.803,0.674,5.723-0.833c-2.396-1.457-4.83-2.855-7.297-4.195
						C235.24-19.31,237.369-17.652,237.306-17.574"/>
				</g>
			</g>
			<g>
				<g>
					<defs>
						<circle id="SVGID_23_" cx="141.731" cy="141.732" r="141.732"/>
					</defs>
					<clipPath id="SVGID_24_">
						<use xlink:href="#SVGID_23_"  style="overflow:visible;"/>
					</clipPath>
					<path style="clip-path:url(#SVGID_24_);fill:#45AF5B;" d="M52.749,283.392c1.822-2.148,2.39-3.85,4.314-5.678
						c2.576-2.445-2.44-3.877-1.547-6.318c0.763-2.086,2.598-0.027,2.852-3.17c-0.107,1.322,4.742-7.451,0.531-5.178
						c1.668-0.906,3.985,0.146,4.209-2.363c0.281-3.174,2.061-2.457,4.79-2.883c2.754-0.432,2.249-2.172,3.813-4.078
						c1.086-1.322-2.889-1.4,2.001-3.004c10.196-3.33,6.183-20.908,18.205-20.312c8.045,0.395,2.084-18.783,8.427-19.201
						c5.166-0.389,3.014-6.99,0.311-8.564c-2.921-1.703-8.751-5.465-11.851-3.58c0.907-0.553-2.239-2.975-2.562-3.127
						c-1.168-0.562-4.118,3.43-4.342,3.045c0.344-0.939,0.619-1.895,0.828-2.867c-1.095-1.094-3.631,2.252-4.49,1.105
						c-0.627-0.834,2.539-2.678,2.592-3.559c0.031-0.555-3.27-4.885-3.247-4.906c-0.405,0.371-1.723,4.148-2.349,3.836
						c-1.476-0.738-4.013,0.25-3.973,0.275c-2.921-1.951-0.28-6.471-2.879-8.543c-4.027-3.217-2.516-2.268-2.708-6.033
						c0.01,0.191-16.253-1.068-15.586-0.24c-0.367-0.646-0.69-1.314-0.969-2.004c-1.863,2.355-5.334,0.967-6.372,3.824
						c-1.633,4.49-5.467-0.52-6.326,1.271c-1.506,3.135-5.447-2.572-5.051-5.035c0.839-5.227-4.943-2.904-7.222-6.885
						c-1.019-1.779,3.6-5.684,1.837-7.152c-5.215-4.35-6.038,5.266-8.106,5.266c-5.963,0-11.324-6.061-6.794-11.629
						c0.818-1.004-1.393-2.434-0.371-3.836c0.845-1.16,2.452-1.287,3.415-2.297c2.373-2.488,6.27,2.143,9.075-1.012
						c1.063-1.191,5.833,1.146,7.24,1.201c2.098,0.082,2.943,5.391,4.101,6.734c2.146,2.521,1.44-5.348,0.645-6.564
						c-2.303-3.529,1.757-7.804,4.848-9.149c4.248-1.855,2.204-4.463,4.491-8.188c0.592-0.971,7.295-5.597,7.295-5.162
						c0-2.09-2.536-0.543,0.69-4.365c1.221-1.441,4.963-1.985,5.752-3.254c-3.876,6.125,1.643,2.25,4.828,0.656
						c5.386-2.693,2.034-6.701-0.119-2.668c-1.72-0.804-2.693-0.992-4.042-1.09c-1.883-0.137,1.455-3.33,1.412-2.648
						c0.17-2.85-4.453-3.932-4.626-3.366c1.223-4.029,6.553,1.289,7.699,1.245c1.062-0.04-2.071-2.942-1.655-2.834
						c1.324,0.343,8.294-0.874,7.876-2.66c0.45,1.945-1.938,5.016-2.404,6.904c-0.368,1.494,5.02,1.933,4.993,1.972
						c-0.585,0.224-1.172,0.438-1.764,0.647c-1.482,1.215,5.494,0.601,5.286,0.805c2.982-2.91,0.806-5.221-2.934-6.838
						c-1.145-0.494-0.927-5.92-0.415-6.954c2.581-5.213-4.719-2.664-6.464-1.945c5.521-2.273,1.147-2.772-0.192-5.264
						c-1.323-2.458-1.517-4.047-2.516-6.142c-1.038-2.177-1.746-4.515-2.988-6.592c-1.693-2.833-3.223,3.63-4.804,4.843
						c-3.409,2.611-3.072-6.651-3.655-7.099c-1.615-1.232-5.367-5.354-6.982-5.659c-0.268-0.051-3.251,0.171-4.451,0.285
						c-2.996,0.285-0.414,7.121-0.993,8.587c-0.292,0.726-1.888,0.389-1.56,1.588c0.589,2.161,3.342,3.091,3.412,5.619
						c0.062,2.204-4.656,6.324-4.321,7.276c0.526,1.5,1.111,5.737,0.385,7.233c-0.747,1.538-5.467-3.006-3.994-3.952
						c2.214-1.422-5.116-9.579-6.19-11.456c-1.176-2.061-4.133-6.309-7.229-3.988c-0.569,0.43-3.219,6.969-4.01,6.599
						c-7.098-3.321,0.455-14.73,3.14-17.701c0.734-0.813,6.997-7.677,7.149-7.31c0.383,0.937-1.634,3.442-0.987,4.033
						c0.727,0.659,2.238,1.264,3.045,1.996c0.691,0.628,2.046-3.428,2.179-3.648c0.294-0.49,4.993,2.805,5.139,1.652
						c0.221-1.733-6.144-6.34-6.043-6.457c2.418-2.857,3.9-5.155,3.289-9.254c-0.19-1.272,1.643-4.056,0.36-4.997
						c-0.441-0.324-4.073-2.999-4.295-2.91c1.265-0.506,2.506-1.054,3.839-1.372c2.827-0.674,1.31,2.002,3.534,2.117
						c0.94,0.049,0.58-2.447,1.766-2.759c1.182-0.312,3.239,3.714,3.649,4.324c1.941,2.886,3.081,6.999,4.909,9.587
						c1.13,1.599,7.368-0.299,4.131,3.187c-2.388,2.571-4.405-6.535-5.258,1.677c0.217-2.087-10.525,2.689-6.804,5.404
						c0.83,0.604,3.994-2.047,4.969-2.216c1.888-0.327,2.04,2.901,3.379,3.42c2.102,0.813,1.486,3.709,4.173,3.654
						c1.029-0.021,5.382,0.874,6.113,1.309c-1.188-0.719-3.747-5.306-4.432-5.403c0.694,0.101,6.646,5.271,6.717,4.918
						c0.511-2.555-2.148-1.91,0.426-3.402c1.768-1.025-0.656-2.476-1.324-3.092c-2.094-1.937-4.257-4.717-3.916-7.847
						c0.236-2.166,4.726,4.599,4.539,4.437c3.56,3.115,1.952-1.558,4.235-4.295c2.559-3.072-15.707-7.414-8.462-13.735
						c1.538-1.342-4.163-0.102-4.191-0.111c-1.013-0.319,1.546-1.59,1.609-1.643c0.821-0.675-5.06-1.673-5.462-2.142
						c0.693,0.808,3.087-5.275-0.032-4.663c-1.033,0.202-0.551,4.106-2.383,2.273c-1.829-1.829-1.285-3.608-2.937-5.619
						c-1.45-1.768-0.122-1.233-0.681-3.106c-0.919-3.1-5.747-1.068-5.972-1.519c0.231,0.462,4.771,3.67,5.113,3.176
						c-0.692,1.006-1.464,3.386-2.239,4.118c-0.926-0.038-1.51-0.573-1.751-1.609c-0.218-0.332-1.833,2.262-1.883,1.946
						c-0.221-1.406,1.303-8.299-1.174-8.98c-5.816-1.579-5.071,13.138-4.25,13.471c-6.726-2.724-0.168-14.066-0.033-13.985
						c-8.409-5.229-10.815,16.835-3.868,13.634c-0.221,0.102-3.428,1.058-3.324,1.108c2.867,1.434,8.348,4.634,7.343,8.174
						c-0.038,0.136-3.246,5.836-3.638,6.062c-1.598,0.91-1.837-10.501-3.732-7.705c-0.155,0.236-0.159,4.315-0.758,3.974
						c-2.1-1.188,0.467-3.153-1.104-4.73c-0.843-0.414-1.71-0.771-2.6-1.072c-1.274-0.796,0.819-2.423,0.213-3.488
						c-0.891-1.553-4.385-4.203-2.858-6.338c2.689-3.764,0.465-1.032-0.724-4.108c-0.309-0.8,4.585,0.489,4.791-0.475
						c0.19-0.89,2.73-6.631,2.791-6.568c-1.182-1.184-9.788,0.206-8.062,2.771c1.293,1.924,0.348,9.032-1.494,10.399
						c-2.759,2.047,1.777,6.834,3.021,7.96c2.114,1.915-2.901,9.53-1.915,9.622c-4.858-0.423,0.832-8.701-2.01-10.952
						c-0.386-0.305-4.022,2.269-4.34,2.776c-0.854,1.366,3.318,3.433,3.37,3.396C7.639,55.822,4.922,59.64,0.7,56.012
						c-6.977-5.979-3.409,3.118-5.554,5.401c-0.47,0.501-2.638-3.689-3.004-3.993c-12.337,24.752-18.753,52.386-18.506,80.048
						c1.915,3.896,5.465,3.569,7.566,7.086c1.507,2.521,2.269,5.314,3.781,7.418c0.011,0.014,3.222,3.477,3.178,4.695
						c-0.016,0.438,3.588,4.01,3.7,4.023c2.531,0.404-6.104-11.021-6.739-12.477c-1.114-2.559,2.518-1.154,2.543,1.42
						c0.025,2.672,6.337,7.156,8.195,8.838c2.916,2.635,1.081,5.076,3.068,7.021c3.065,3,8.479,4.762,12.405,6.434
						c1.71,0.727,2.39-2.473,3.637-1.76c1.482,0.85,3.304,2.139,4.643,3.326c0.606,0.541,3.111,2.156,4.008,1.646
						c1.678-0.953,2.551,2.74,3.242,3.719c1.382,1.953,4.136,4.199,6.336,5.225c2.678,1.252,7.466-3.061,7.849,2.906
						c0.244,3.785-6.189,5.477-5.744,9.674c0.369,3.473-2.237,5.67,0.461,8.551c2.976,3.174,2.769,7.393,5.255,10.658
						c1.326,1.746,9.876,5.484,9.625,7.121c-0.518,3.363-0.097,6.604-0.585,10.004c-0.138,0.971-2.128,6.846-2.457,5.529
						c0.452,1.797,2.128,5.898,0.691,8.355c-1.078,1.836-3.393,7.803-2.795,9.564c1.014,3.076-2.916,9.582-1.92,11.807
						c0.47,1.041-0.786,8.318-0.832,8.346c0.307-0.158,0.24-2.887,1.24-2.518c0.23,0.809,0.073,1.543-0.471,2.209
						c-0.873,1.23-0.195,2.074,2.031,2.535C47.062,279.949,52.186,284.064,52.749,283.392"/>
				</g>
			</g>
			<g>
				<g>
					<defs>
						<circle id="SVGID_25_" cx="141.731" cy="141.732" r="141.732"/>
					</defs>
					<clipPath id="SVGID_26_">
						<use xlink:href="#SVGID_25_"  style="overflow:visible;"/>
					</clipPath>
					<path style="clip-path:url(#SVGID_26_);fill:#45AF5B;" d="M148.941,86.77c-1.619,0.873-3.486,1.471-5.266,1.87
						c2.186,1.365,1.148,1.891-0.137,3.326l1.312,0.622c0.637,0.332-1.006,0.352,1.02,0.443c-1.854-0.084,2.439,6.034,1.961,5.792
						c0.875-0.154,1.729-0.086,2.562,0.207c-0.045-0.407-2.838,5.387-2.562,5.191c0.768-0.554,0.084,5.586-1.871,4.78
						c5.527,2.283,13.611-2.233,10.564-8.417c-0.383-0.78-6.854-7.016-6.27-7.305c5.914-2.962-2.803-2.518,0.139-5.821
						C149.912,87.231,149.425,87.001,148.941,86.77L148.941,86.77z"/>
				</g>
			</g>
			<g>
				<g>
					<defs>
						<circle id="SVGID_27_" cx="141.731" cy="141.732" r="141.732"/>
					</defs>
					<clipPath id="SVGID_28_">
						<use xlink:href="#SVGID_27_"  style="overflow:visible;"/>
					</clipPath>
					<path style="clip-path:url(#SVGID_28_);fill:#45AF5B;" d="M54.249-12.08c1.176,1.04,3.936-0.616,5.54-0.043
						c-1.883-0.673-1.528,2.601-0.899,3.445c2.462,3.306-6.781,4.252-7.03,5.083c-0.598,1.993-6.04,2.428-5.236,5.031
						c-0.031-0.1,4.515,7.846,3.027,6.882c1.875,1.215,3.688-2.99,5.822-1.203c-0.538-0.45-3.807,2.138-4.462,2.126
						c-4.419-0.077-0.567,3.009-0.354,4.986c0.521,4.805,7.161,3.197,9.843,1.865c4.127-2.051,8.44,5.432,8.824,8.229
						c0.415,3.009,5.486,10.468,4.089,11.609c-0.36,0.295-2.58,6.525,0.771,4.383c5.569-3.564,4.07,5.128,4.346,5.103
						c-1.824,0.167-3.268-3.691-4.994-0.832c-0.347,0.581,2.39,1.016,2.497,1.664c0.136,0.812-2.911,0.007-2.773,0.972
						c0.209,1.456,1.733,3.191,2.636,4.302c2.163-1.834,1.264-2.691,1.264-4.7c0,0.065,3.599-0.261,1.996,2.603
						c-1.454,2.6-3.422,5.767-4.369,8.618c-0.411,1.237,1.16,5.03,1.911,6.146c0.374,0.553,4.621,3.924,4.626,4.017
						c0.148,2.99-5.397,0.122-1.062,5.223c1.259,1.48,2.715,3,3.615,4.744c0.824,1.595-1.137,1.604-0.802,2.512
						c-0.178-0.48,6.168,2.827,6.277,3.023c0.449-0.205,1.012-4.655,1.133-5.138c0.838-3.313,2.321-4.48,4.031-7.275
						c0.745-1.217-0.118-5.559,1.911-5.898c0.768-0.503,1.438-1.116,2.012-1.838c1.675-1.674,1.75,0.146,2.593-0.371
						c2.834-1.743,6.994-6.914,5.106-10.278c2.971,5.271,11.716-3.482,14.842-5.688c-1.289-0.861-6.646-0.842-6.8-1.979
						c-0.061-0.445,4.175-3.599,2.641-4.262c2.056,0.875,1.882,7.156,5.082,3.877c3.464-3.548-2.981-8.773-5.636-10.955
						c4.475,0.775,3.241-2.578,6.058-2.446c5.078,0.237-5.27-7.25,3.132-6.312c-1.222-0.137-2.627-5.388-3.422-5.939
						c0.288,0.197,3.565,2.236,3.594,1.554c0.071-1.735-2.082-5.198-3.638-5.854c-5.032-2.124,6.445-6.571,4.925-2.044
						c0.487-1.487,0.162-3.64,0.137-5.196c-0.377,0.117-3.734,0.623-3.287-0.272c0.566-0.812,1.062-1.664,1.484-2.557
						c-0.387-0.485-3.629,2.125-3.42-0.033c0.313-3.223,2.02-2.521,0.916-6.195c-0.689-2.298,3.363-2.331,3.025-4.874
						c-0.426-3.205,1.975-3.082,1.975-5.462c-0.378-0.333-0.816-0.52-1.313-0.554c-0.493,0.592-0.456,1.991-2.089,1.289
						c-3.732-1.606,5.733-4.394,4.649-2.743c3.777-5.771-3.091-3.152-5.708-2.798c-1.91,0.258,5.266-2.902,4.461-2.051
						c1.135-1.208,1.985,0.073,2.84-0.416c1.354-0.773,2.035-2.276,3.082-3.435c2.787-3.079,3.344-3.857,0.312-7.087
						c-3.604-3.838-4.142-0.056-6.003,2.413c-0.376,0.499-1.822-2.208-2.031-0.967c-0.057,0.336,2.467,1.217,1.387,1.662
						c-2.646,1.089-1.734-0.416-3.025-1.937c-0.232-0.274-4.953,10.984-6.796,10.109c1.305,0.617,3.774-11.116,3.682-12.624
						c-0.259-4.189-6.513,5.021-9.099,5.491c0.695-0.441,6.168-6.991,2.214-5.821c-1.483,0.442-9.962,4.145-10.935,3.631
						c-1.235-0.65,4.169-4.012,4.713-4.246c2.998-1.291,5.564,0.021,8.534-1.263c1.66-0.718,6.3-2.465,4.615-5.188
						c-0.486-0.876-12.915,2.61-14.264,2.953c-9.187,2.332-18.187,5.407-26.876,9.192C77.506-24.991,54.499-11.874,54.249-12.08"/>
				</g>
			</g>
			<g>
				<g>
					<defs>
						<circle id="SVGID_29_" cx="141.731" cy="141.732" r="141.732"/>
					</defs>
					<clipPath id="SVGID_30_">
						<use xlink:href="#SVGID_29_"  style="overflow:visible;"/>
					</clipPath>
					<path style="clip-path:url(#SVGID_30_);fill:#45AF5B;" d="M48.537,165.337c-0.271,0.34-5.062,0.607-4.007,1.83
						c2.556,2.973,8.115-1.418,9.188-0.172C52.862,165.994,49.8,163.753,48.537,165.337"/>
				</g>
			</g>
			<g>
				<g>
					<defs>
						<circle id="SVGID_31_" cx="141.731" cy="141.732" r="141.732"/>
					</defs>
					<clipPath id="SVGID_32_">
						<use xlink:href="#SVGID_31_"  style="overflow:visible;"/>
					</clipPath>
					<path style="clip-path:url(#SVGID_32_);fill:#45AF5B;" d="M30.628,74.44c-0.168,0.612-1.524,4.164,0.899,1.731
						C34.384,73.32,30.788,73.847,30.628,74.44"/>
				</g>
			</g>
			<g>
				<g>
					<defs>
						<circle id="SVGID_33_" cx="141.731" cy="141.732" r="141.732"/>
					</defs>
					<clipPath id="SVGID_34_">
						<use xlink:href="#SVGID_33_"  style="overflow:visible;"/>
					</clipPath>
					<path style="clip-path:url(#SVGID_34_);fill:#45AF5B;" d="M35.655,162.16c2.727,0.189,3.59,3.223,6.672,2.891
						c3.087-0.332,0.577-2.566-0.826-3.348c-1.759-0.977-5.986-1.096-7.229-2.34c-1.197-1.189-4.811,2.229-4.422,2.488
						C31.313,162.814,33.8,162.033,35.655,162.16"/>
				</g>
			</g>
			<g>
				<g>
					<defs>
						<circle id="SVGID_35_" cx="141.731" cy="141.732" r="141.732"/>
					</defs>
					<clipPath id="SVGID_36_">
						<use xlink:href="#SVGID_35_"  style="overflow:visible;"/>
					</clipPath>
					<path style="clip-path:url(#SVGID_36_);fill:#45AF5B;" d="M166.556,128.968c0.561,0.971,0.764,3.471,1.758,3.803
						c2.305,0.765,1.496-3.373,0.91-4.391c-0.479-0.83-0.732-3.264-1.078-3.972C168.216,124.3,167.33,130.296,166.556,128.968"/>
				</g>
			</g>
			<g>
				<g>
					<defs>
						<circle id="SVGID_37_" cx="141.731" cy="141.732" r="141.732"/>
					</defs>
					<clipPath id="SVGID_38_">
						<use xlink:href="#SVGID_37_"  style="overflow:visible;"/>
					</clipPath>
					<path style="clip-path:url(#SVGID_38_);fill:#4D9632;" d="M355.205,196.828c0.023,1.68,0.604,3.115,1.73,4.312
						C358.345,197.189,355.205,195.478,355.205,196.828"/>
				</g>
			</g>
			<g>
				<g>
					<defs>
						<circle id="SVGID_39_" cx="141.731" cy="141.732" r="141.732"/>
					</defs>
					<clipPath id="SVGID_40_">
						<use xlink:href="#SVGID_39_"  style="overflow:visible;"/>
					</clipPath>
					<path style="clip-path:url(#SVGID_40_);fill:#45AF5B;" d="M157.23,133.078c1.164-0.994,6.193-2.126,3.178-3.935
						C158.798,128.179,156.789,133.458,157.23,133.078"/>
				</g>
			</g>
			<g>
				<g>
					<defs>
						<circle id="SVGID_41_" cx="141.731" cy="141.732" r="141.732"/>
					</defs>
					<clipPath id="SVGID_42_">
						<use xlink:href="#SVGID_41_"  style="overflow:visible;"/>
					</clipPath>
					<path style="clip-path:url(#SVGID_42_);fill:#45AF5B;" d="M36.437,75.786c-0.158,0.159-1.156,2.898-0.243,2.191
						C36.973,77.374,36.965,75.257,36.437,75.786"/>
				</g>
			</g>
			<g>
				<g>
					<defs>
						<circle id="SVGID_43_" cx="141.731" cy="141.732" r="141.732"/>
					</defs>
					<clipPath id="SVGID_44_">
						<use xlink:href="#SVGID_43_"  style="overflow:visible;"/>
					</clipPath>
					<path style="clip-path:url(#SVGID_44_);fill:#45AF5B;" d="M15.389,25.118c1.979,0.166,0.714-2.621,0.146-3.177
						c-0.939,1.108-1.865,2.228-2.776,3.36C13.659,25.572,14.536,25.511,15.389,25.118"/>
				</g>
			</g>
			<g>
				<g>
					<defs>
						<circle id="SVGID_45_" cx="141.731" cy="141.732" r="141.732"/>
					</defs>
					<clipPath id="SVGID_46_">
						<use xlink:href="#SVGID_45_"  style="overflow:visible;"/>
					</clipPath>
					<path style="clip-path:url(#SVGID_46_);fill:#45AF5B;" d="M6.037,34.264c0,0.789-1.462,2.021-1.845,2.583
						c0.158,0.156,4.321,5.658,3.923,5.658c2.001,0,4.056-4.631,3.117-6.164c-2.346-3.822-0.505-3.142-1.164-7.617
						C9.9,28.944,6.037,34.002,6.037,34.264"/>
				</g>
			</g>
			<g>
				<g>
					<defs>
						<circle id="SVGID_47_" cx="141.731" cy="141.732" r="141.732"/>
					</defs>
					<clipPath id="SVGID_48_">
						<use xlink:href="#SVGID_47_"  style="overflow:visible;"/>
					</clipPath>
					<path style="clip-path:url(#SVGID_48_);fill:#45AF5B;" d="M31.889,5.283c0.216,2.284-7.972,7.403-9.507,9.019
						c0.246,0.209,6.896-1.203,6.514-0.057c0.341-1.03,2.354-0.653,3.793-0.589c4.291,0.195,3.2,2.476,6.346-1.489
						c1.302-1.639-5.736-2.531-6.527-2.59c0.393,0.028,0.562-2.09,2.763-1.359c3.324,1.104,4.163-3.97,2.354-3.809
						c1.001,0.036,1.994-0.034,2.979-0.209c0.575-0.229-1.271-1.618-0.418-1.8c1.188-0.256,4.163-0.903,0.949-2.156
						c0.794,0.311,3.24-1.815,1.546-2.833C41.317-3.399,31.721,3.488,31.889,5.283"/>
				</g>
			</g>
			<g>
				<g>
					<defs>
						<circle id="SVGID_49_" cx="141.731" cy="141.732" r="141.732"/>
					</defs>
					<clipPath id="SVGID_50_">
						<use xlink:href="#SVGID_49_"  style="overflow:visible;"/>
					</clipPath>
					<path style="clip-path:url(#SVGID_50_);fill:#45AF5B;" d="M4.581,48.325c-0.464-1.858-3.316-3.701-4.462-5.196
						c-1.698,2.731-3.322,5.508-4.866,8.329c2.079-2.384,4.848,1.976,7.736,0.539C0.075,47.247,5.043,50.175,4.581,48.325"/>
				</g>
			</g>
			<g>
				<g>
					<defs>
						<circle id="SVGID_51_" cx="141.731" cy="141.732" r="141.732"/>
					</defs>
					<clipPath id="SVGID_52_">
						<use xlink:href="#SVGID_51_"  style="overflow:visible;"/>
					</clipPath>
					<path style="clip-path:url(#SVGID_52_);fill:#45AF5B;" d="M20.235,25.534c0.567,0.64,8.118-0.076,8.312,0.141
						c-0.118-0.132,5.553,0.301,5.819,0.345c3.611,0.605,0.706-3.475,0.833-3.601c3.553-3.555-5.337-5.123-5.889-4.643
						c-2.133,1.86-8.399,4.844-9.62-0.587c-1.767,1.938-2.698,2.257-2.653,4.519C17.105,25.084,18.675,23.776,20.235,25.534"/>
				</g>
			</g>
			<g>
				<g>
					<defs>
						<circle id="SVGID_53_" cx="141.731" cy="141.732" r="141.732"/>
					</defs>
					<clipPath id="SVGID_54_">
						<use xlink:href="#SVGID_53_"  style="overflow:visible;"/>
					</clipPath>
					<path style="clip-path:url(#SVGID_54_);fill:#45AF5B;" d="M39.122,71.787c-0.793,0.66,0.149,1.475,0.493,1.131
						C40.024,72.505,40.448,70.695,39.122,71.787"/>
				</g>
			</g>
			<g>
				<g>
					<defs>
						<circle id="SVGID_55_" cx="141.731" cy="141.732" r="141.732"/>
					</defs>
					<clipPath id="SVGID_56_">
						<use xlink:href="#SVGID_55_"  style="overflow:visible;"/>
					</clipPath>
					<path style="clip-path:url(#SVGID_56_);fill:#45AF5B;" d="M40.741,58.507c5.26,2.109,1.414-6.439,0-2.703
						C40.826,55.581,38.308,57.535,40.741,58.507"/>
				</g>
			</g>
		</g>
	</g>
</g>
<g id="Layer_1_1_">
</g>
</svg>
